# xmcd CD database file
#
# Track frame offsets:
#	150
#	16942
#	37145
#	53004
#	66739
#	74474
#	88630
#	105337
#	112590
#	126542
#	142969
#	158124
#	175202
#	185886
#	202972
#	220010
#
# Disc length: 3103 seconds
#
# Revision: 0
# Processed by: cddbd v1.5.2PL0 Copyright (c) Steve Scherf et al.
# Submitted via: CDex 1.51
#
DISCID=e60c1d10
DTITLE=Jo Ann Kelly - Do It and More
DYEAR=1976
DGENRE=Blues
TTITLE0=Where Is My Good Man
TTITLE1=Come Back Baby
TTITLE2=Me And My Chauffeur Blues
TTITLE3=Moon Going Down
TTITLE4=Boll Weevil
TTITLE5=Nothing And Rambling
TTITLE6=Little More Time
TTITLE7=Do It
TTITLE8=Black Rat Swing
TTITLE9=River Jordan
TTITLE10=Swing Down Sweet Chariot
TTITLE11=Can`t Be Satisfied
TTITLE12=Death Have Mercy
TTITLE13=Walking The Dog
TTITLE14=Sugar Babe
TTITLE15=Rising Sun Shine On
EXTD=YEAR: 1976
EXTT0=
EXTT1=
EXTT2=
EXTT3=
EXTT4=
EXTT5=
EXTT6=
EXTT7=
EXTT8=
EXTT9=
EXTT10=
EXTT11=
EXTT12=
EXTT13=
EXTT14=
EXTT15=
PLAYORDER=
